<svg width="345" height="85" viewBox="70 72 345 85" fill="none" xmlns="http://www.w3.org/2000/svg">
<path d="M82.9929 82.0545C83.1889 82.0392 83.4023 82.0378 83.6002 82.0373C94.6045 82.0084 105.624 82.021 116.627 82.0223L126.652 82.0258C130.713 82.03 136.897 81.3757 138.487 86.4066C139.019 88.087 138.974 90.0168 138.984 91.7697L139 114.32L138.996 120.888C138.984 125.018 139.237 129.656 134.149 130.997C131.82 131.612 129.163 131.427 126.748 131.428L106.576 131.427C104.37 131.425 102.161 131.396 99.9559 131.434C99.1156 131.42 98.7352 131.713 98.13 132.244C94.2027 135.693 90.6335 139.7 86.5871 143.005C86.4703 141.575 86.5617 139.629 86.5731 138.152C86.5842 135.904 86.5646 133.656 86.5143 131.408C83.7951 131.526 79.4351 131.56 77.2925 129.701C75.9788 128.561 75.1377 126.25 75.0782 124.544C74.9914 122.053 75.0224 119.485 75.0233 116.985L75.0198 94.6568C74.9956 87.7245 74.345 82.4871 82.9929 82.0545Z" fill="#1ED78A"/>
<path d="M104.883 94.7172C106.81 94.5334 108.971 95.0343 110.292 96.5539C111.514 97.9607 111.633 100.457 110.659 102.038C109.894 103.28 108.807 104.129 107.688 105.039C108.681 106.316 110.464 108.348 111.313 109.57C111.819 108.309 112.208 106.872 112.193 105.504C113.356 105.528 114.519 105.532 115.682 105.516C115.587 107.575 115.487 108.82 114.561 110.73C114.319 111.227 113.907 111.99 113.708 112.472L113.683 112.532C114.463 113.602 116.522 116.212 117.448 117.156C116.685 117.139 115.881 117.168 115.116 117.183C112.571 117.227 112.598 117.444 110.974 115.436C110.544 115.776 110.074 116.078 109.624 116.385C104.1 120.152 96.1565 116.666 97.7299 109.382C98.2227 107.1 100.546 105.743 102.361 104.615C101.37 103.537 100.223 102.095 99.9889 100.606C99.4739 97.3346 101.844 95.1976 104.883 94.7172Z" fill="#0C101A"/>
<path d="M104.388 107.389C104.859 107.504 108.119 111.88 108.66 112.589C107.783 113.324 106.967 113.675 105.895 114.064C105.122 114.246 104.854 114.317 104.059 114.063C101.428 113.222 100.77 109.562 103.157 108.032C103.582 107.76 103.928 107.599 104.388 107.389Z" fill="#1ED78A"/>
<path d="M105.814 98.0054C106.445 97.9859 107.002 98.4555 107.489 98.8252C107.632 100.636 107.224 101.596 105.682 102.559C105.051 102.003 104.182 100.643 103.993 99.8224C103.725 98.6527 104.873 98.1907 105.814 98.0054Z" fill="#1ED78A"/>
<path d="M174.94 94.2886H170.099C170.01 93.6622 169.83 93.1059 169.557 92.6196C169.285 92.1259 168.935 91.7059 168.507 91.3596C168.08 91.0132 167.586 90.748 167.026 90.5637C166.473 90.3795 165.873 90.2874 165.225 90.2874C164.053 90.2874 163.032 90.5785 162.163 91.1606C161.293 91.7354 160.619 92.5754 160.14 93.6807C159.661 94.7786 159.422 96.1123 159.422 97.6818C159.422 99.2955 159.661 100.651 160.14 101.749C160.627 102.847 161.304 103.676 162.174 104.236C163.043 104.796 164.049 105.076 165.191 105.076C165.832 105.076 166.426 104.991 166.971 104.822C167.524 104.653 168.014 104.406 168.441 104.081C168.868 103.75 169.222 103.348 169.502 102.877C169.789 102.405 169.988 101.867 170.099 101.263L174.94 101.285C174.815 102.324 174.502 103.326 174.001 104.291C173.507 105.249 172.84 106.108 172 106.867C171.167 107.618 170.173 108.215 169.016 108.657C167.866 109.092 166.566 109.309 165.114 109.309C163.095 109.309 161.29 108.853 159.698 107.939C158.114 107.025 156.861 105.703 155.94 103.971C155.026 102.239 154.57 100.143 154.57 97.6818C154.57 95.2133 155.034 93.1133 155.962 91.3817C156.891 89.65 158.151 88.3311 159.742 87.4247C161.334 86.511 163.124 86.0542 165.114 86.0542C166.426 86.0542 167.641 86.2384 168.761 86.6068C169.889 86.9752 170.887 87.5131 171.757 88.2205C172.626 88.9205 173.334 89.779 173.879 90.7959C174.432 91.8127 174.785 92.977 174.94 94.2886ZM182.992 99.185V109H178.284V86.3636H182.859V95.0181H183.058C183.442 94.0159 184.061 93.2312 184.915 92.6638C185.77 92.089 186.842 91.8017 188.132 91.8017C189.311 91.8017 190.339 92.0596 191.215 92.5754C192.1 93.0838 192.785 93.817 193.271 94.7749C193.765 95.7255 194.008 96.8639 194.001 98.1903V109H189.292V99.0303C189.3 97.9839 189.034 97.1697 188.496 96.5876C187.966 96.0055 187.222 95.7144 186.264 95.7144C185.623 95.7144 185.055 95.8507 184.562 96.1234C184.075 96.396 183.692 96.7939 183.412 97.3171C183.139 97.8329 182.999 98.4555 182.992 99.185ZM202.547 109.321C201.464 109.321 200.499 109.133 199.652 108.757C198.804 108.374 198.134 107.81 197.64 107.066C197.154 106.314 196.91 105.378 196.91 104.258C196.91 103.315 197.084 102.523 197.43 101.882C197.776 101.241 198.248 100.725 198.845 100.335C199.442 99.944 200.119 99.6492 200.878 99.4503C201.645 99.2513 202.448 99.1113 203.288 99.0303C204.275 98.9271 205.071 98.8313 205.675 98.7429C206.28 98.6471 206.718 98.5071 206.991 98.3229C207.263 98.1387 207.4 97.866 207.4 97.505V97.4387C207.4 96.7386 207.179 96.197 206.736 95.8139C206.302 95.4307 205.683 95.2391 204.88 95.2391C204.032 95.2391 203.358 95.427 202.857 95.8028C202.356 96.1713 202.024 96.6355 201.862 97.1955L197.507 96.8418C197.728 95.8102 198.163 94.9186 198.812 94.167C199.46 93.408 200.296 92.8259 201.321 92.4206C202.352 92.008 203.546 91.8017 204.902 91.8017C205.845 91.8017 206.748 91.9122 207.61 92.1333C208.479 92.3543 209.249 92.697 209.92 93.1612C210.598 93.6254 211.132 94.2223 211.522 94.9517C211.913 95.6739 212.108 96.5397 212.108 97.5492V109H207.643V106.646H207.51C207.238 107.176 206.873 107.644 206.416 108.049C205.959 108.447 205.41 108.761 204.769 108.989C204.128 109.21 203.387 109.321 202.547 109.321ZM203.896 106.071C204.589 106.071 205.2 105.935 205.731 105.662C206.261 105.382 206.678 105.006 206.98 104.535C207.282 104.063 207.433 103.529 207.433 102.932V101.13C207.285 101.226 207.083 101.315 206.825 101.396C206.574 101.469 206.291 101.539 205.974 101.606C205.657 101.665 205.34 101.72 205.023 101.771C204.706 101.816 204.419 101.856 204.161 101.893C203.609 101.974 203.126 102.103 202.713 102.28C202.301 102.457 201.98 102.696 201.752 102.998C201.523 103.293 201.409 103.661 201.409 104.104C201.409 104.745 201.641 105.235 202.105 105.574C202.577 105.905 203.174 106.071 203.896 106.071ZM215.761 115.366V92.0227H220.403V94.8744H220.613C220.82 94.4175 221.118 93.9533 221.509 93.4817C221.907 93.0028 222.422 92.6048 223.056 92.288C223.697 91.9638 224.493 91.8017 225.444 91.8017C226.681 91.8017 227.824 92.1259 228.87 92.7743C229.916 93.4154 230.753 94.3844 231.379 95.6812C232.005 96.9707 232.318 98.5882 232.318 100.533C232.318 102.427 232.013 104.026 231.401 105.33C230.797 106.627 229.972 107.611 228.925 108.282C227.886 108.945 226.722 109.276 225.432 109.276C224.519 109.276 223.741 109.125 223.1 108.823C222.467 108.521 221.947 108.142 221.542 107.685C221.137 107.22 220.827 106.753 220.613 106.281H220.47V115.366H215.761ZM220.37 100.511C220.37 101.521 220.51 102.401 220.79 103.153C221.07 103.905 221.476 104.49 222.006 104.91C222.537 105.323 223.181 105.529 223.94 105.529C224.707 105.529 225.355 105.319 225.886 104.899C226.416 104.472 226.818 103.883 227.09 103.131C227.37 102.372 227.51 101.499 227.51 100.511C227.51 99.5313 227.374 98.6692 227.101 97.925C226.829 97.1808 226.427 96.5986 225.897 96.1786C225.366 95.7586 224.714 95.5486 223.94 95.5486C223.174 95.5486 222.526 95.7512 221.995 96.1565C221.472 96.5618 221.07 97.1365 220.79 97.8808C220.51 98.625 220.37 99.5019 220.37 100.511ZM244.488 92.0227V95.5597H234.264V92.0227H244.488ZM236.585 87.9553H241.293V103.783C241.293 104.218 241.36 104.557 241.492 104.8C241.625 105.036 241.809 105.201 242.045 105.297C242.288 105.393 242.568 105.441 242.885 105.441C243.106 105.441 243.327 105.423 243.548 105.386C243.769 105.341 243.939 105.308 244.057 105.286L244.797 108.79C244.561 108.864 244.23 108.948 243.802 109.044C243.375 109.147 242.856 109.21 242.244 109.232C241.109 109.276 240.114 109.125 239.26 108.779C238.412 108.433 237.753 107.895 237.281 107.165C236.81 106.436 236.578 105.515 236.585 104.402V87.9553ZM255.11 109.332C253.363 109.332 251.86 108.978 250.6 108.271C249.347 107.556 248.382 106.546 247.704 105.242C247.026 103.93 246.687 102.379 246.687 100.589C246.687 98.8424 247.026 97.3097 247.704 95.9907C248.382 94.6717 249.336 93.6438 250.567 92.907C251.805 92.1701 253.256 91.8017 254.922 91.8017C256.042 91.8017 257.084 91.9822 258.05 92.3433C259.022 92.697 259.87 93.2312 260.592 93.9459C261.321 94.6607 261.889 95.5597 262.294 96.6428C262.699 97.7187 262.902 98.9787 262.902 100.423V101.716H248.566V98.7982H258.47C258.47 98.1203 258.322 97.5197 258.028 96.9965C257.733 96.4734 257.324 96.0644 256.801 95.7697C256.285 95.4676 255.684 95.3165 254.999 95.3165C254.284 95.3165 253.651 95.4823 253.098 95.8139C252.553 96.1381 252.125 96.5765 251.816 97.1292C251.506 97.6744 251.348 98.2824 251.341 98.9529V101.727C251.341 102.567 251.495 103.293 251.805 103.905C252.122 104.516 252.567 104.988 253.142 105.319C253.717 105.651 254.398 105.817 255.187 105.817C255.71 105.817 256.189 105.743 256.624 105.596C257.059 105.448 257.431 105.227 257.74 104.933C258.05 104.638 258.285 104.277 258.448 103.849L262.802 104.137C262.581 105.183 262.128 106.097 261.443 106.878C260.765 107.652 259.888 108.256 258.812 108.691C257.744 109.118 256.51 109.332 255.11 109.332ZM265.975 109V92.0227H270.539V94.9849H270.716C271.026 93.9312 271.545 93.1354 272.275 92.5975C273.004 92.0522 273.844 91.7796 274.795 91.7796C275.031 91.7796 275.285 91.7943 275.557 91.8238C275.83 91.8532 276.07 91.8938 276.276 91.9454V96.1234C276.055 96.057 275.749 95.9981 275.358 95.9465C274.968 95.8949 274.611 95.8691 274.286 95.8691C273.594 95.8691 272.975 96.0202 272.429 96.3223C271.892 96.6171 271.464 97.0297 271.147 97.5602C270.838 98.0908 270.683 98.7024 270.683 99.395V109H265.975ZM292.855 109.332C291.293 109.332 289.945 109.052 288.81 108.492C287.675 107.932 286.802 107.173 286.19 106.215C285.586 105.249 285.284 104.174 285.284 102.987C285.284 102.103 285.461 101.318 285.815 100.633C286.168 99.9477 286.662 99.3176 287.296 98.7429C287.929 98.1608 288.666 97.5823 289.506 97.0076L293.894 94.1228C294.462 93.7617 294.878 93.3822 295.143 92.9843C295.408 92.5791 295.541 92.1406 295.541 91.669C295.541 91.2195 295.361 90.8032 295 90.4201C294.638 90.0369 294.126 89.849 293.463 89.8564C293.021 89.8564 292.638 89.9558 292.314 90.1548C291.989 90.3464 291.735 90.6006 291.551 90.9174C291.374 91.2269 291.286 91.5732 291.286 91.9564C291.286 92.428 291.418 92.907 291.684 93.3933C291.949 93.8796 292.303 94.3954 292.745 94.9407C293.187 95.4786 293.669 96.0607 294.193 96.6871L304.925 109H300.018L291.065 99.0303C290.475 98.3597 289.886 97.6597 289.296 96.9302C288.714 96.1934 288.228 95.4123 287.837 94.587C287.447 93.7543 287.251 92.8517 287.251 91.879C287.251 90.7811 287.506 89.7937 288.014 88.9169C288.53 88.04 289.252 87.3473 290.18 86.8389C291.109 86.3231 292.192 86.0652 293.43 86.0652C294.638 86.0652 295.681 86.3121 296.558 86.8058C297.442 87.2921 298.12 87.9405 298.592 88.7511C299.071 89.5542 299.31 90.4385 299.31 91.4038C299.31 92.4722 299.045 93.4412 298.514 94.3107C297.991 95.1728 297.254 95.9465 296.304 96.6318L291.684 99.9587C291.057 100.416 290.593 100.883 290.291 101.362C289.996 101.834 289.849 102.287 289.849 102.722C289.849 103.26 289.982 103.742 290.247 104.17C290.512 104.597 290.888 104.936 291.374 105.187C291.86 105.43 292.432 105.551 293.087 105.551C293.883 105.551 294.668 105.371 295.442 105.01C296.223 104.641 296.93 104.122 297.564 103.451C298.205 102.774 298.717 101.97 299.1 101.042C299.483 100.113 299.675 99.0855 299.675 97.9581H303.577C303.577 99.3434 303.426 100.592 303.123 101.705C302.821 102.81 302.401 103.776 301.863 104.601C301.325 105.419 300.71 106.089 300.018 106.613C299.796 106.753 299.583 106.885 299.376 107.01C299.17 107.136 298.956 107.268 298.735 107.408C297.895 108.086 296.956 108.576 295.917 108.878C294.885 109.181 293.865 109.332 292.855 109.332ZM318.269 86.3636L323.74 103.562H323.95L329.432 86.3636H334.738L326.934 109H320.767L312.952 86.3636H318.269ZM343.196 109.332C341.449 109.332 339.946 108.978 338.686 108.271C337.433 107.556 336.468 106.546 335.79 105.242C335.112 103.93 334.773 102.379 334.773 100.589C334.773 98.8424 335.112 97.3097 335.79 95.9907C336.468 94.6717 337.422 93.6438 338.653 92.907C339.891 92.1701 341.343 91.8017 343.008 91.8017C344.128 91.8017 345.171 91.9822 346.136 92.3433C347.108 92.697 347.956 93.2312 348.678 93.9459C349.407 94.6607 349.975 95.5597 350.38 96.6428C350.785 97.7187 350.988 98.9787 350.988 100.423V101.716H336.652V98.7982H346.556C346.556 98.1203 346.408 97.5197 346.114 96.9965C345.819 96.4734 345.41 96.0644 344.887 95.7697C344.371 95.4676 343.77 95.3165 343.085 95.3165C342.37 95.3165 341.737 95.4823 341.184 95.8139C340.639 96.1381 340.211 96.5765 339.902 97.1292C339.592 97.6744 339.434 98.2824 339.427 98.9529V101.727C339.427 102.567 339.581 103.293 339.891 103.905C340.208 104.516 340.654 104.988 341.228 105.319C341.803 105.651 342.485 105.817 343.273 105.817C343.796 105.817 344.275 105.743 344.71 105.596C345.145 105.448 345.517 105.227 345.826 104.933C346.136 104.638 346.372 104.277 346.534 103.849L350.889 104.137C350.668 105.183 350.214 106.097 349.529 106.878C348.851 107.652 347.974 108.256 346.898 108.691C345.83 109.118 344.596 109.332 343.196 109.332ZM354.061 109V92.0227H358.626V94.9849H358.802C359.112 93.9312 359.631 93.1354 360.361 92.5975C361.09 92.0522 361.93 91.7796 362.881 91.7796C363.117 91.7796 363.371 91.7943 363.644 91.8238C363.916 91.8532 364.156 91.8938 364.362 91.9454V96.1234C364.141 96.057 363.835 95.9981 363.445 95.9465C363.054 95.8949 362.697 95.8691 362.373 95.8691C361.68 95.8691 361.061 96.0202 360.516 96.3223C359.978 96.6171 359.55 97.0297 359.234 97.5602C358.924 98.0908 358.769 98.7024 358.769 99.395V109H354.061ZM380.922 96.8639L376.611 97.1292C376.538 96.7607 376.379 96.4292 376.136 96.1344C375.893 95.8323 375.572 95.5928 375.175 95.416C374.784 95.2318 374.316 95.1396 373.771 95.1396C373.041 95.1396 372.426 95.2944 371.925 95.6039C371.424 95.906 371.173 96.3113 371.173 96.8197C371.173 97.225 371.336 97.5676 371.66 97.8476C371.984 98.1276 372.54 98.3524 373.329 98.5218L376.401 99.1408C378.052 99.4798 379.283 100.025 380.093 100.777C380.904 101.528 381.309 102.516 381.309 103.739C381.309 104.851 380.981 105.828 380.325 106.668C379.677 107.508 378.785 108.164 377.65 108.635C376.523 109.099 375.222 109.332 373.749 109.332C371.501 109.332 369.711 108.864 368.377 107.928C367.051 106.985 366.273 105.703 366.045 104.081L370.676 103.838C370.816 104.524 371.155 105.047 371.693 105.408C372.231 105.761 372.92 105.938 373.76 105.938C374.585 105.938 375.248 105.78 375.749 105.463C376.258 105.139 376.516 104.723 376.523 104.214C376.516 103.787 376.335 103.437 375.981 103.164C375.628 102.884 375.082 102.67 374.346 102.523L371.406 101.937C369.748 101.606 368.513 101.031 367.703 100.213C366.9 99.395 366.498 98.3524 366.498 97.085C366.498 95.9944 366.793 95.0549 367.382 94.2665C367.979 93.478 368.815 92.8701 369.891 92.4427C370.974 92.0154 372.242 91.8017 373.693 91.8017C375.838 91.8017 377.525 92.2548 378.756 93.1612C379.994 94.0675 380.716 95.3018 380.922 96.8639ZM392.011 109.332C390.265 109.332 388.761 108.978 387.501 108.271C386.249 107.556 385.283 106.546 384.605 105.242C383.928 103.93 383.589 102.379 383.589 100.589C383.589 98.8424 383.928 97.3097 384.605 95.9907C385.283 94.6717 386.238 93.6438 387.468 92.907C388.706 92.1701 390.158 91.8017 391.823 91.8017C392.943 91.8017 393.986 91.9822 394.951 92.3433C395.924 92.697 396.771 93.2312 397.493 93.9459C398.223 94.6607 398.79 95.5597 399.195 96.6428C399.601 97.7187 399.803 98.9787 399.803 100.423V101.716H385.468V98.7982H395.371C395.371 98.1203 395.224 97.5197 394.929 96.9965C394.634 96.4734 394.225 96.0644 393.702 95.7697C393.186 95.4676 392.586 95.3165 391.9 95.3165C391.186 95.3165 390.552 95.4823 389.999 95.8139C389.454 96.1381 389.027 96.5765 388.717 97.1292C388.408 97.6744 388.249 98.2824 388.242 98.9529V101.727C388.242 102.567 388.397 103.293 388.706 103.905C389.023 104.516 389.469 104.988 390.044 105.319C390.618 105.651 391.3 105.817 392.088 105.817C392.611 105.817 393.09 105.743 393.525 105.596C393.96 105.448 394.332 105.227 394.642 104.933C394.951 104.638 395.187 104.277 395.349 103.849L399.704 104.137C399.483 105.183 399.03 106.097 398.344 106.878C397.666 107.652 396.789 108.256 395.714 108.691C394.645 109.118 393.411 109.332 392.011 109.332Z" fill="white"/>
<path d="M153.662 130.142V129.266C153.662 128.999 153.709 128.717 153.804 128.418C153.901 128.116 154.041 127.826 154.222 127.546C154.408 127.264 154.63 127.019 154.89 126.811L155.513 127.318C155.309 127.61 155.13 127.915 154.977 128.233C154.828 128.548 154.753 128.886 154.753 129.246V130.142H153.662ZM156.156 130.142V129.266C156.156 128.999 156.203 128.717 156.297 128.418C156.395 128.116 156.534 127.826 156.716 127.546C156.901 127.264 157.124 127.019 157.383 126.811L158.007 127.318C157.802 127.61 157.624 127.915 157.471 128.233C157.322 128.548 157.247 128.886 157.247 129.246V130.142H156.156ZM159.431 137V127.025H160.639V131.467H165.958V127.025H167.166V137H165.958V132.539H160.639V137H159.431ZM172.565 137.156C171.844 137.156 171.222 136.997 170.699 136.679C170.18 136.357 169.779 135.909 169.496 135.334C169.217 134.756 169.077 134.084 169.077 133.318C169.077 132.552 169.217 131.876 169.496 131.292C169.779 130.704 170.172 130.246 170.675 129.918C171.181 129.587 171.772 129.422 172.448 129.422C172.837 129.422 173.222 129.486 173.602 129.616C173.982 129.746 174.328 129.957 174.639 130.25C174.951 130.539 175.2 130.922 175.385 131.399C175.57 131.876 175.662 132.464 175.662 133.162V133.649H169.896V132.656H174.493C174.493 132.233 174.409 131.857 174.24 131.526C174.074 131.194 173.837 130.933 173.529 130.741C173.224 130.55 172.863 130.454 172.448 130.454C171.99 130.454 171.594 130.568 171.259 130.795C170.928 131.019 170.673 131.311 170.495 131.672C170.316 132.032 170.227 132.419 170.227 132.831V133.493C170.227 134.058 170.324 134.537 170.519 134.93C170.717 135.32 170.991 135.617 171.342 135.821C171.693 136.023 172.1 136.123 172.565 136.123C172.867 136.123 173.139 136.081 173.383 135.997C173.63 135.909 173.842 135.779 174.021 135.607C174.2 135.432 174.338 135.214 174.435 134.954L175.545 135.266C175.428 135.643 175.232 135.974 174.956 136.26C174.68 136.542 174.339 136.763 173.933 136.922C173.527 137.078 173.071 137.156 172.565 137.156ZM177.923 139.805C177.729 139.805 177.555 139.789 177.402 139.757C177.25 139.727 177.144 139.698 177.086 139.669L177.378 138.656C177.657 138.727 177.904 138.753 178.118 138.734C178.332 138.714 178.522 138.619 178.688 138.447C178.857 138.278 179.011 138.003 179.151 137.623L179.365 137.039L176.599 129.519H177.845L179.911 135.48H179.988L182.054 129.519H183.3L180.125 138.091C179.982 138.477 179.805 138.797 179.594 139.05C179.383 139.307 179.138 139.497 178.859 139.62C178.583 139.744 178.271 139.805 177.923 139.805ZM186.063 135.636L185.985 136.162C185.93 136.532 185.846 136.929 185.732 137.351C185.622 137.773 185.506 138.171 185.386 138.544C185.266 138.917 185.167 139.214 185.089 139.435H184.212C184.255 139.227 184.31 138.953 184.378 138.612C184.446 138.271 184.514 137.89 184.583 137.468C184.654 137.049 184.712 136.62 184.758 136.182L184.816 135.636H186.063ZM197.154 139.805V135.851H197.057C196.973 135.987 196.852 136.159 196.697 136.367C196.541 136.571 196.318 136.755 196.029 136.917C195.74 137.076 195.356 137.156 194.875 137.156C194.252 137.156 193.701 136.998 193.224 136.683C192.747 136.365 192.373 135.917 192.104 135.339C191.834 134.758 191.699 134.071 191.699 133.279C191.699 132.493 191.834 131.811 192.104 131.233C192.373 130.655 192.748 130.209 193.229 129.894C193.709 129.579 194.265 129.422 194.895 129.422C195.382 129.422 195.766 129.503 196.049 129.665C196.335 129.824 196.552 130.006 196.701 130.211C196.854 130.412 196.973 130.577 197.057 130.707H197.193V129.519H198.304V139.805H197.154ZM195.031 136.123C195.492 136.123 195.882 136.003 196.2 135.763C196.518 135.519 196.76 135.183 196.925 134.755C197.091 134.323 197.174 133.824 197.174 133.259C197.174 132.701 197.093 132.212 196.93 131.793C196.768 131.371 196.528 131.043 196.21 130.81C195.891 130.573 195.498 130.454 195.031 130.454C194.544 130.454 194.138 130.579 193.813 130.829C193.492 131.076 193.25 131.412 193.088 131.837C192.928 132.259 192.849 132.733 192.849 133.259C192.849 133.792 192.93 134.276 193.092 134.711C193.258 135.143 193.502 135.487 193.823 135.743C194.148 135.997 194.55 136.123 195.031 136.123ZM205.122 133.941V129.519H206.272V137H205.122V135.734H205.045C204.869 136.114 204.596 136.437 204.226 136.703C203.856 136.966 203.389 137.097 202.824 137.097C202.356 137.097 201.94 136.995 201.577 136.791C201.213 136.583 200.927 136.271 200.72 135.855C200.512 135.437 200.408 134.909 200.408 134.273V129.519H201.557V134.195C201.557 134.74 201.71 135.175 202.015 135.5C202.324 135.825 202.716 135.987 203.194 135.987C203.48 135.987 203.77 135.914 204.066 135.768C204.364 135.622 204.614 135.398 204.816 135.096C205.02 134.794 205.122 134.409 205.122 133.941ZM208.377 137V129.519H209.527V137H208.377ZM208.962 128.272C208.738 128.272 208.544 128.196 208.382 128.043C208.223 127.891 208.143 127.707 208.143 127.493C208.143 127.279 208.223 127.095 208.382 126.942C208.544 126.79 208.738 126.714 208.962 126.714C209.186 126.714 209.377 126.79 209.536 126.942C209.699 127.095 209.78 127.279 209.78 127.493C209.78 127.707 209.699 127.891 209.536 128.043C209.377 128.196 209.186 128.272 208.962 128.272ZM214.671 137.156C213.97 137.156 213.366 136.99 212.859 136.659C212.353 136.328 211.963 135.872 211.69 135.29C211.418 134.709 211.281 134.045 211.281 133.298C211.281 132.539 211.421 131.868 211.7 131.287C211.983 130.702 212.375 130.246 212.879 129.918C213.385 129.587 213.976 129.422 214.652 129.422C215.178 129.422 215.652 129.519 216.074 129.714C216.496 129.909 216.842 130.181 217.111 130.532C217.381 130.883 217.548 131.292 217.613 131.759H216.463C216.376 131.418 216.181 131.116 215.879 130.853C215.58 130.587 215.178 130.454 214.671 130.454C214.223 130.454 213.83 130.571 213.492 130.805C213.158 131.035 212.897 131.362 212.708 131.784C212.523 132.203 212.431 132.695 212.431 133.259C212.431 133.837 212.522 134.341 212.703 134.769C212.888 135.198 213.148 135.531 213.483 135.768C213.82 136.005 214.216 136.123 214.671 136.123C214.97 136.123 215.241 136.071 215.484 135.967C215.728 135.864 215.934 135.714 216.103 135.519C216.272 135.325 216.392 135.091 216.463 134.818H217.613C217.548 135.26 217.387 135.657 217.131 136.011C216.877 136.362 216.541 136.641 216.122 136.849C215.707 137.054 215.223 137.156 214.671 137.156ZM220.365 134.273L220.345 132.85H220.579L223.852 129.519H225.274L221.787 133.045H221.689L220.365 134.273ZM219.293 137V127.025H220.443V137H219.293ZM224.047 137L221.124 133.298L221.943 132.5L225.508 137H224.047ZM235.715 139.805V135.851H235.618C235.533 135.987 235.413 136.159 235.257 136.367C235.101 136.571 234.879 136.755 234.59 136.917C234.301 137.076 233.916 137.156 233.436 137.156C232.812 137.156 232.262 136.998 231.785 136.683C231.307 136.365 230.934 135.917 230.664 135.339C230.395 134.758 230.26 134.071 230.26 133.279C230.26 132.493 230.395 131.811 230.664 131.233C230.934 130.655 231.309 130.209 231.789 129.894C232.27 129.579 232.825 129.422 233.455 129.422C233.942 129.422 234.327 129.503 234.609 129.665C234.895 129.824 235.113 130.006 235.262 130.211C235.415 130.412 235.533 130.577 235.618 130.707H235.754V129.519H236.865V139.805H235.715ZM233.592 136.123C234.053 136.123 234.442 136.003 234.76 135.763C235.079 135.519 235.321 135.183 235.486 134.755C235.652 134.323 235.735 133.824 235.735 133.259C235.735 132.701 235.653 132.212 235.491 131.793C235.329 131.371 235.088 131.043 234.77 130.81C234.452 130.573 234.059 130.454 233.592 130.454C233.105 130.454 232.699 130.579 232.374 130.829C232.052 131.076 231.811 131.412 231.648 131.837C231.489 132.259 231.41 132.733 231.41 133.259C231.41 133.792 231.491 134.276 231.653 134.711C231.819 135.143 232.062 135.487 232.384 135.743C232.708 135.997 233.111 136.123 233.592 136.123ZM243.683 133.941V129.519H244.833V137H243.683V135.734H243.605C243.43 136.114 243.157 136.437 242.787 136.703C242.417 136.966 241.949 137.097 241.384 137.097C240.917 137.097 240.501 136.995 240.137 136.791C239.774 136.583 239.488 136.271 239.28 135.855C239.072 135.437 238.969 134.909 238.969 134.273V129.519H240.118V134.195C240.118 134.74 240.271 135.175 240.576 135.5C240.884 135.825 241.277 135.987 241.754 135.987C242.04 135.987 242.331 135.914 242.626 135.768C242.925 135.622 243.175 135.398 243.376 135.096C243.581 134.794 243.683 134.409 243.683 133.941ZM250.074 137.156C249.354 137.156 248.732 136.997 248.209 136.679C247.69 136.357 247.289 135.909 247.006 135.334C246.727 134.756 246.587 134.084 246.587 133.318C246.587 132.552 246.727 131.876 247.006 131.292C247.289 130.704 247.681 130.246 248.185 129.918C248.691 129.587 249.282 129.422 249.958 129.422C250.347 129.422 250.732 129.486 251.112 129.616C251.492 129.746 251.838 129.957 252.149 130.25C252.461 130.539 252.709 130.922 252.894 131.399C253.08 131.876 253.172 132.464 253.172 133.162V133.649H247.405V132.656H252.003C252.003 132.233 251.919 131.857 251.75 131.526C251.584 131.194 251.347 130.933 251.039 130.741C250.734 130.55 250.373 130.454 249.958 130.454C249.5 130.454 249.104 130.568 248.769 130.795C248.438 131.019 248.183 131.311 248.004 131.672C247.826 132.032 247.737 132.419 247.737 132.831V133.493C247.737 134.058 247.834 134.537 248.029 134.93C248.227 135.32 248.501 135.617 248.852 135.821C249.203 136.023 249.61 136.123 250.074 136.123C250.376 136.123 250.649 136.081 250.893 135.997C251.139 135.909 251.352 135.779 251.531 135.607C251.709 135.432 251.847 135.214 251.945 134.954L253.055 135.266C252.938 135.643 252.742 135.974 252.466 136.26C252.19 136.542 251.849 136.763 251.443 136.922C251.037 137.078 250.581 137.156 250.074 137.156ZM260.22 131.194L259.187 131.487C259.122 131.315 259.026 131.147 258.9 130.985C258.776 130.819 258.607 130.683 258.393 130.576C258.179 130.469 257.905 130.415 257.57 130.415C257.112 130.415 256.731 130.521 256.426 130.732C256.124 130.94 255.973 131.204 255.973 131.526C255.973 131.811 256.076 132.037 256.284 132.203C256.492 132.368 256.817 132.506 257.258 132.617L258.369 132.889C259.038 133.052 259.536 133.3 259.864 133.635C260.192 133.966 260.356 134.393 260.356 134.915C260.356 135.344 260.233 135.727 259.986 136.065C259.742 136.403 259.401 136.669 258.963 136.864C258.525 137.058 258.015 137.156 257.434 137.156C256.671 137.156 256.039 136.99 255.539 136.659C255.039 136.328 254.722 135.844 254.589 135.208L255.68 134.935C255.784 135.338 255.981 135.64 256.27 135.841C256.562 136.042 256.943 136.143 257.414 136.143C257.95 136.143 258.375 136.029 258.69 135.802C259.008 135.571 259.168 135.295 259.168 134.974C259.168 134.714 259.077 134.497 258.895 134.321C258.713 134.143 258.434 134.01 258.057 133.922L256.81 133.63C256.125 133.467 255.622 133.216 255.3 132.875C254.982 132.531 254.823 132.1 254.823 131.584C254.823 131.162 254.942 130.789 255.179 130.464C255.419 130.139 255.745 129.884 256.158 129.699C256.573 129.514 257.044 129.422 257.57 129.422C258.31 129.422 258.892 129.584 259.314 129.909C259.739 130.233 260.041 130.662 260.22 131.194ZM265.34 129.519V130.493H261.463V129.519H265.34ZM262.593 127.727H263.742V134.857C263.742 135.182 263.789 135.425 263.883 135.588C263.981 135.747 264.104 135.854 264.254 135.909C264.406 135.961 264.567 135.987 264.736 135.987C264.862 135.987 264.966 135.98 265.047 135.967C265.129 135.951 265.194 135.938 265.242 135.928L265.476 136.961C265.398 136.99 265.289 137.019 265.15 137.049C265.01 137.081 264.833 137.097 264.619 137.097C264.294 137.097 263.976 137.028 263.664 136.888C263.356 136.748 263.099 136.536 262.895 136.25C262.693 135.964 262.593 135.604 262.593 135.169V127.727ZM267.069 137V129.519H268.218V137H267.069ZM267.653 128.272C267.429 128.272 267.236 128.196 267.074 128.043C266.914 127.891 266.835 127.707 266.835 127.493C266.835 127.279 266.914 127.095 267.074 126.942C267.236 126.79 267.429 126.714 267.653 126.714C267.877 126.714 268.069 126.79 268.228 126.942C268.39 127.095 268.471 127.279 268.471 127.493C268.471 127.707 268.39 127.891 268.228 128.043C268.069 128.196 267.877 128.272 267.653 128.272ZM273.363 137.156C272.687 137.156 272.095 136.995 271.585 136.674C271.078 136.352 270.682 135.903 270.396 135.325C270.114 134.747 269.973 134.071 269.973 133.298C269.973 132.519 270.114 131.839 270.396 131.258C270.682 130.677 271.078 130.225 271.585 129.904C272.095 129.582 272.687 129.422 273.363 129.422C274.038 129.422 274.629 129.582 275.135 129.904C275.645 130.225 276.041 130.677 276.324 131.258C276.61 131.839 276.752 132.519 276.752 133.298C276.752 134.071 276.61 134.747 276.324 135.325C276.041 135.903 275.645 136.352 275.135 136.674C274.629 136.995 274.038 137.156 273.363 137.156ZM273.363 136.123C273.876 136.123 274.298 135.992 274.629 135.729C274.96 135.466 275.205 135.12 275.364 134.691C275.523 134.263 275.603 133.798 275.603 133.298C275.603 132.798 275.523 132.332 275.364 131.901C275.205 131.469 274.96 131.12 274.629 130.853C274.298 130.587 273.876 130.454 273.363 130.454C272.85 130.454 272.427 130.587 272.096 130.853C271.765 131.12 271.52 131.469 271.361 131.901C271.202 132.332 271.122 132.798 271.122 133.298C271.122 133.798 271.202 134.263 271.361 134.691C271.52 135.12 271.765 135.466 272.096 135.729C272.427 135.992 272.85 136.123 273.363 136.123ZM279.656 132.5V137H278.507V129.519H279.617V130.688H279.715C279.89 130.308 280.156 130.003 280.514 129.772C280.871 129.538 281.332 129.422 281.897 129.422C282.403 129.422 282.847 129.525 283.226 129.733C283.606 129.938 283.902 130.25 284.113 130.668C284.324 131.084 284.429 131.61 284.429 132.246V137H283.28V132.324C283.28 131.737 283.127 131.279 282.822 130.951C282.517 130.62 282.098 130.454 281.566 130.454C281.199 130.454 280.871 130.534 280.582 130.693C280.296 130.852 280.07 131.084 279.905 131.389C279.739 131.694 279.656 132.065 279.656 132.5ZM287.368 137.078C287.127 137.078 286.921 136.992 286.749 136.82C286.577 136.648 286.491 136.442 286.491 136.201C286.491 135.961 286.577 135.755 286.749 135.583C286.921 135.411 287.127 135.325 287.368 135.325C287.608 135.325 287.814 135.411 287.986 135.583C288.158 135.755 288.244 135.961 288.244 136.201C288.244 136.36 288.204 136.506 288.122 136.64C288.045 136.773 287.939 136.88 287.806 136.961C287.676 137.039 287.53 137.078 287.368 137.078ZM290.543 127.025V127.902C290.543 128.168 290.494 128.452 290.397 128.754C290.303 129.053 290.163 129.344 289.978 129.626C289.796 129.905 289.576 130.149 289.316 130.357L288.692 129.85C288.897 129.558 289.074 129.254 289.223 128.939C289.376 128.621 289.452 128.282 289.452 127.921V127.025H290.543ZM293.037 127.025V127.902C293.037 128.168 292.988 128.452 292.891 128.754C292.797 129.053 292.657 129.344 292.472 129.626C292.29 129.905 292.069 130.149 291.809 130.357L291.186 129.85C291.391 129.558 291.568 129.254 291.717 128.939C291.869 128.621 291.946 128.282 291.946 127.921V127.025H293.037Z" fill="#1ED78A"/>
<path d="M154.099 157H153.238L155.728 150.219H156.576L159.065 157H158.205L156.178 151.292H156.125L154.099 157ZM154.417 154.351H157.887V155.08H154.417V154.351ZM166.71 150.219V157H165.916L162.221 151.676H162.155V157H161.334V150.219H162.128L165.836 155.556H165.903V150.219H166.71ZM174.221 150.219V157H173.4V150.219H174.221ZM182.456 150.219V157H181.661L177.966 151.676H177.9V157H177.079V150.219H177.874L181.582 155.556H181.648V150.219H182.456ZM184.94 150.948V150.219H190.025V150.948H187.893V157H187.072V150.948H184.94ZM192.505 157V150.219H196.597V150.948H193.326V153.239H196.385V153.967H193.326V156.272H196.65V157H192.505ZM199.289 157V150.219H200.11V156.272H203.262V157H199.289ZM205.745 157V150.219H206.566V156.272H209.718V157H205.745ZM212.202 157V150.219H216.294V150.948H213.023V153.239H216.082V153.967H213.023V156.272H216.347V157H212.202ZM224.362 150.219V157H223.568L219.873 151.676H219.807V157H218.986V150.219H219.78L223.488 155.556H223.555V150.219H224.362ZM232.674 152.338H231.853C231.804 152.102 231.719 151.895 231.598 151.716C231.478 151.537 231.333 151.387 231.161 151.266C230.991 151.142 230.802 151.049 230.594 150.988C230.387 150.926 230.171 150.895 229.946 150.895C229.535 150.895 229.163 150.999 228.83 151.206C228.499 151.414 228.235 151.719 228.039 152.123C227.844 152.527 227.747 153.023 227.747 153.61C227.747 154.197 227.844 154.692 228.039 155.096C228.235 155.5 228.499 155.806 228.83 156.013C229.163 156.221 229.535 156.325 229.946 156.325C230.171 156.325 230.387 156.294 230.594 156.232C230.802 156.17 230.991 156.078 231.161 155.957C231.333 155.833 231.478 155.682 231.598 155.504C231.719 155.323 231.804 155.115 231.853 154.881H232.674C232.612 155.228 232.499 155.538 232.336 155.811C232.173 156.085 231.97 156.318 231.727 156.51C231.484 156.7 231.211 156.844 230.909 156.944C230.609 157.043 230.288 157.093 229.946 157.093C229.367 157.093 228.853 156.951 228.403 156.669C227.952 156.386 227.598 155.985 227.34 155.464C227.082 154.943 226.953 154.325 226.953 153.61C226.953 152.895 227.082 152.277 227.34 151.756C227.598 151.235 227.952 150.833 228.403 150.551C228.853 150.268 229.367 150.127 229.946 150.127C230.288 150.127 230.609 150.176 230.909 150.276C231.211 150.375 231.484 150.521 231.727 150.713C231.97 150.903 232.173 151.134 232.336 151.408C232.499 151.68 232.612 151.99 232.674 152.338ZM235.213 157V150.219H239.305V150.948H236.034V153.239H239.093V153.967H236.034V156.272H239.358V157H235.213ZM245.831 157V150.219H248.122C248.654 150.219 249.089 150.315 249.426 150.507C249.766 150.697 250.018 150.954 250.181 151.279C250.345 151.603 250.426 151.965 250.426 152.365C250.426 152.764 250.345 153.127 250.181 153.454C250.02 153.781 249.771 154.041 249.433 154.235C249.095 154.427 248.663 154.524 248.135 154.524H246.493V153.795H248.109C248.473 153.795 248.765 153.732 248.986 153.606C249.207 153.481 249.367 153.311 249.466 153.097C249.568 152.88 249.618 152.636 249.618 152.365C249.618 152.093 249.568 151.851 249.466 151.636C249.367 151.422 249.206 151.255 248.983 151.133C248.76 151.01 248.464 150.948 248.095 150.948H246.652V157H245.831ZM252.961 157V150.219H255.252C255.782 150.219 256.217 150.31 256.557 150.491C256.896 150.67 257.148 150.916 257.311 151.229C257.475 151.543 257.556 151.899 257.556 152.299C257.556 152.698 257.475 153.052 257.311 153.361C257.148 153.67 256.898 153.913 256.56 154.09C256.222 154.264 255.791 154.351 255.265 154.351H253.411V153.61H255.239C255.601 153.61 255.892 153.557 256.113 153.451C256.336 153.345 256.497 153.195 256.596 153.001C256.698 152.804 256.749 152.57 256.749 152.299C256.749 152.027 256.698 151.79 256.596 151.587C256.495 151.384 256.332 151.227 256.11 151.117C255.887 151.004 255.592 150.948 255.226 150.948H253.782V157H252.961ZM256.153 153.954L257.821 157H256.868L255.226 153.954H256.153ZM265.858 153.61C265.858 154.325 265.729 154.943 265.47 155.464C265.212 155.985 264.858 156.386 264.408 156.669C263.957 156.951 263.443 157.093 262.865 157.093C262.286 157.093 261.772 156.951 261.322 156.669C260.872 156.386 260.517 155.985 260.259 155.464C260.001 154.943 259.872 154.325 259.872 153.61C259.872 152.895 260.001 152.277 260.259 151.756C260.517 151.235 260.872 150.833 261.322 150.551C261.772 150.268 262.286 150.127 262.865 150.127C263.443 150.127 263.957 150.268 264.408 150.551C264.858 150.833 265.212 151.235 265.47 151.756C265.729 152.277 265.858 152.895 265.858 153.61ZM265.063 153.61C265.063 153.023 264.965 152.527 264.768 152.123C264.574 151.719 264.31 151.414 263.977 151.206C263.646 150.999 263.275 150.895 262.865 150.895C262.454 150.895 262.082 150.999 261.749 151.206C261.418 151.414 261.154 151.719 260.958 152.123C260.763 152.527 260.666 153.023 260.666 153.61C260.666 154.197 260.763 154.692 260.958 155.096C261.154 155.5 261.418 155.806 261.749 156.013C262.082 156.221 262.454 156.325 262.865 156.325C263.275 156.325 263.646 156.221 263.977 156.013C264.31 155.806 264.574 155.5 264.768 155.096C264.965 154.692 265.063 154.197 265.063 153.61ZM270.543 157H268.45V150.219H270.635C271.293 150.219 271.856 150.355 272.324 150.627C272.792 150.896 273.151 151.283 273.4 151.789C273.649 152.292 273.774 152.895 273.774 153.596C273.774 154.303 273.648 154.911 273.397 155.421C273.145 155.928 272.779 156.319 272.298 156.593C271.816 156.864 271.231 157 270.543 157ZM269.271 156.272H270.49C271.05 156.272 271.515 156.163 271.884 155.947C272.252 155.731 272.527 155.423 272.708 155.023C272.889 154.624 272.98 154.148 272.98 153.596C272.98 153.049 272.89 152.578 272.711 152.183C272.533 151.785 272.266 151.481 271.91 151.269C271.555 151.055 271.112 150.948 270.583 150.948H269.271V156.272ZM280.813 150.219H281.634V154.709C281.634 155.172 281.525 155.586 281.307 155.95C281.09 156.312 280.785 156.598 280.389 156.808C279.994 157.015 279.531 157.119 278.999 157.119C278.467 157.119 278.003 157.015 277.608 156.808C277.213 156.598 276.906 156.312 276.688 155.95C276.472 155.586 276.363 155.172 276.363 154.709V150.219H277.185V154.643C277.185 154.974 277.257 155.268 277.403 155.527C277.549 155.783 277.756 155.985 278.025 156.133C278.297 156.278 278.621 156.351 278.999 156.351C279.376 156.351 279.701 156.278 279.972 156.133C280.244 155.985 280.451 155.783 280.595 155.527C280.74 155.268 280.813 154.974 280.813 154.643V150.219ZM289.942 152.338H289.121C289.073 152.102 288.988 151.895 288.866 151.716C288.747 151.537 288.601 151.387 288.429 151.266C288.259 151.142 288.071 151.049 287.863 150.988C287.656 150.926 287.439 150.895 287.214 150.895C286.804 150.895 286.432 150.999 286.098 151.206C285.767 151.414 285.504 151.719 285.307 152.123C285.113 152.527 285.016 153.023 285.016 153.61C285.016 154.197 285.113 154.692 285.307 155.096C285.504 155.5 285.767 155.806 286.098 156.013C286.432 156.221 286.804 156.325 287.214 156.325C287.439 156.325 287.656 156.294 287.863 156.232C288.071 156.17 288.259 156.078 288.429 155.957C288.601 155.833 288.747 155.682 288.866 155.504C288.988 155.323 289.073 155.115 289.121 154.881H289.942C289.88 155.228 289.768 155.538 289.605 155.811C289.441 156.085 289.238 156.318 288.995 156.51C288.753 156.7 288.48 156.844 288.178 156.944C287.877 157.043 287.556 157.093 287.214 157.093C286.636 157.093 286.122 156.951 285.671 156.669C285.221 156.386 284.867 155.985 284.609 155.464C284.35 154.943 284.221 154.325 284.221 153.61C284.221 152.895 284.35 152.277 284.609 151.756C284.867 151.235 285.221 150.833 285.671 150.551C286.122 150.268 286.636 150.127 287.214 150.127C287.556 150.127 287.877 150.176 288.178 150.276C288.48 150.375 288.753 150.521 288.995 150.713C289.238 150.903 289.441 151.134 289.605 151.408C289.768 151.68 289.88 151.99 289.942 152.338ZM292.11 150.948V150.219H297.196V150.948H295.063V157H294.242V150.948H292.11Z" fill="#676B76"/>
</svg>
